# xmcd
#
# Track frame offsets:
# 150
# 14156
# 27041
# 41887
# 59118
# 73742
# 89761
# 107741
# 124146
# 141042
# 157844
# 173861
# 191114
# 210163
# 225419
# 240219
# 256729
# 273173
# 289495
# 305817
#
# Disc length: 4275 seconds
#
#
# Revision: 0
# Processed by: cddbd v1.5.2PL0 Copyright (c) Steve Scherf et al.
# Submitted via: FreeRIP 2.96 
#
DISCID=2410b114
DTITLE=forró saborear - as 20 +
DYEAR=1900
DGENRE=forró
TTITLE0=patricinha
TTITLE1=não me machuque assim
TTITLE2=lua dos namorados
TTITLE3=fui eu
TTITLE4=o amor não acaba assim
TTITLE5=o troco
TTITLE6=o que eu vou fazer
TTITLE7=presentimento - ponta de faca
TTITLE8=por você
TTITLE9=
TTITLE10=meu desejo
TTITLE11=o amor de despreso/ vá com deus/na hora h
TTITLE12=o amor perfeito/ abandonada
TTITLE13=a dona do meu mundo/ sempre será
TTITLE14=saborear
TTITLE15=você ganhou de mim/ faz amor assim/ dois estranhos
TTITLE16=solidão - eu me enganei/ meu mel
TTITLE17=mordida de amor/ alô
TTITLE18=colo de menina/ nosso xote
TTITLE19=você errou and do que eu
EXTD=
EXTT0=
EXTT1=
EXTT2=
EXTT3=
EXTT4=
EXTT5=
EXTT6=
EXTT7=
EXTT8=
EXTT9=
EXTT10=
EXTT11=
EXTT12=
EXTT13=
EXTT14=
EXTT15=
EXTT16=
EXTT17=
EXTT18=
EXTT19=
PLAYORDER=
